<?xml version="1.0" encoding="UTF-8"?>
<!DOCTYPE svg PUBLIC "-//W3C//DTD SVG 1.1//EN" "http://www.w3.org/Graphics/SVG/1.1/DTD/svg11.dtd">
<svg xmlns="http://www.w3.org/2000/svg" version="1.1" width="64px" height="64px" style="shape-rendering:geometricPrecision; text-rendering:geometricPrecision; image-rendering:optimizeQuality; fill-rule:evenodd; clip-rule:evenodd" xmlns:xlink="http://www.w3.org/1999/xlink">
<g><path style="opacity:0.971" fill="#000000" d="M 4.5,5.5 C 21.8333,5.5 39.1667,5.5 56.5,5.5C 56.5,22.8333 56.5,40.1667 56.5,57.5C 39.1667,57.5 21.8333,57.5 4.5,57.5C 4.5,40.1667 4.5,22.8333 4.5,5.5 Z M 7.5,7.5 C 23.0779,7.17562 38.5779,7.50895 54,8.5C 54.8238,24.0744 54.6571,39.5744 53.5,55C 37.9256,55.8238 22.4256,55.6571 7,54.5C 6.18348,38.7591 6.35014,23.0924 7.5,7.5 Z M 46.5,15.5 C 49.0009,15.5109 49.1676,16.1776 47,17.5C 46.5357,16.9056 46.369,16.2389 46.5,15.5 Z"/></g>
<g><path style="opacity:0.677" fill="#000000" d="M 11.5,9.5 C 12.5,9.5 13.5,9.5 14.5,9.5C 14.073,12.7877 14.7397,15.7877 16.5,18.5C 14.5,19.8333 12.5,19.8333 10.5,18.5C 10.9678,15.4557 11.3011,12.4557 11.5,9.5 Z"/></g>
<g><path style="opacity:0.984" fill="#000000" d="M 20.5,9.5 C 22.4228,13.0293 23.0894,17.0293 22.5,21.5C 27.8333,21.5 33.1667,21.5 38.5,21.5C 39.1667,5.5 39.8333,5.5 40.5,21.5C 56.5,22.1667 56.5,22.8333 40.5,23.5C 39.8333,31.5 39.1667,31.5 38.5,23.5C 33.1667,23.5 27.8333,23.5 22.5,23.5C 22.8319,33.5222 22.4985,43.5222 21.5,53.5C 20.5078,49.2172 20.1744,44.8839 20.5,40.5C 4.5,39.8333 4.5,39.1667 20.5,38.5C 20.5,33.5 20.5,28.5 20.5,23.5C 4.5,22.8333 4.5,22.1667 20.5,21.5C 20.5,17.5 20.5,13.5 20.5,9.5 Z"/></g>
<g><path style="opacity:0.67" fill="#000000" d="M 44.5,9.5 C 46.924,9.19244 49.2573,9.52577 51.5,10.5C 49.9223,11.2978 48.2556,11.7978 46.5,12C 50.3061,12.7928 51.6395,14.9594 50.5,18.5C 48.2573,19.4742 45.924,19.8076 43.5,19.5C 43.905,16.2047 44.2383,12.8714 44.5,9.5 Z M 46.5,15.5 C 46.369,16.2389 46.5357,16.9056 47,17.5C 49.1676,16.1776 49.0009,15.5109 46.5,15.5 Z"/></g>
<g><path style="opacity:0.695" fill="#000000" d="M 30.5,29.5 C 29.5,29.5 28.5,29.5 27.5,29.5C 27.5,28.1667 27.5,26.8333 27.5,25.5C 34.622,25.2458 35.9553,27.7458 31.5,33C 32.624,33.2492 33.624,33.7492 34.5,34.5C 32.2573,35.4742 29.924,35.8076 27.5,35.5C 27.615,33.0532 28.615,31.0532 30.5,29.5 Z"/></g>
<g><path style="opacity:0.875" fill="#000000" d="M 38.5,31.5 C 39.6491,31.7911 40.3158,32.6244 40.5,34C 40.1667,34.8333 39.8333,35.6667 39.5,36.5C 38.5481,34.9547 38.2148,33.288 38.5,31.5 Z"/></g>
<g><path style="opacity:0.875" fill="#000000" d="M 24.5,38.5 C 26.288,38.2148 27.9547,38.5481 29.5,39.5C 28.6667,39.8333 27.8333,40.1667 27,40.5C 25.6244,40.3158 24.7911,39.6491 24.5,38.5 Z"/></g>
<g><path style="opacity:0.972" fill="#000000" d="M 31.5,38.5 C 38.5316,38.1697 45.5316,38.503 52.5,39.5C 48.5546,40.4909 44.5546,40.8242 40.5,40.5C 39.8333,57.8333 39.1667,57.8333 38.5,40.5C 35.6122,41.0102 33.2789,40.3435 31.5,38.5 Z"/></g>
<g><path style="opacity:0.883" fill="#000000" d="M 10.5,48.5 C 11.5862,48.62 12.2528,49.2867 12.5,50.5C 12.1667,51.1667 11.8333,51.8333 11.5,52.5C 10.5713,51.3112 10.238,49.9778 10.5,48.5 Z"/></g>
<g><path style="opacity:0.883" fill="#000000" d="M 15.5,48.5 C 16.5862,48.62 17.2528,49.2867 17.5,50.5C 17.1667,51.1667 16.8333,51.8333 16.5,52.5C 15.5713,51.3112 15.238,49.9778 15.5,48.5 Z"/></g>
<g><path style="opacity:0.883" fill="#000000" d="M 24.5,48.5 C 25.5862,48.62 26.2528,49.2867 26.5,50.5C 26.1667,51.1667 25.8333,51.8333 25.5,52.5C 24.5713,51.3112 24.238,49.9778 24.5,48.5 Z"/></g>
<g><path style="opacity:0.883" fill="#000000" d="M 29.5,48.5 C 30.5862,48.62 31.2528,49.2867 31.5,50.5C 31.1667,51.1667 30.8333,51.8333 30.5,52.5C 29.5713,51.3112 29.238,49.9778 29.5,48.5 Z"/></g>
<g><path style="opacity:0.883" fill="#000000" d="M 34.5,48.5 C 35.5862,48.62 36.2528,49.2867 36.5,50.5C 36.1667,51.1667 35.8333,51.8333 35.5,52.5C 34.5713,51.3112 34.238,49.9778 34.5,48.5 Z"/></g>
<g><path style="opacity:0.883" fill="#000000" d="M 43.5,48.5 C 44.5862,48.62 45.2528,49.2867 45.5,50.5C 45.1667,51.1667 44.8333,51.8333 44.5,52.5C 43.5713,51.3112 43.238,49.9778 43.5,48.5 Z"/></g>
<g><path style="opacity:0.883" fill="#000000" d="M 48.5,48.5 C 49.5862,48.62 50.2528,49.2867 50.5,50.5C 50.1667,51.1667 49.8333,51.8333 49.5,52.5C 48.5713,51.3112 48.238,49.9778 48.5,48.5 Z"/></g>
</svg>
